<?xml version="1.0" encoding="utf-8"?>
<!-- Generator: Adobe Illustrator 25.3.1, SVG Export Plug-In . SVG Version: 6.00 Build 0)  -->
<svg version="1.1" id="Layer_1" xmlns="http://www.w3.org/2000/svg" xmlns:xlink="http://www.w3.org/1999/xlink" x="0px" y="0px"
	 viewBox="0 0 600 600" style="enable-background:new 0 0 600 600;" xml:space="preserve">
<style type="text/css">
	.st0{fill-rule:evenodd;clip-rule:evenodd;fill:#FFFFFF;}
</style>
<path class="st0" d="M300,0C134.31,0,0,134.31,0,300s134.31,300,300,300s300-134.31,300-300S465.69,0,300,0z M195.98,472.42
	c1,1.76,1.55,3.82,1.46,6c-0.24,5.79-4.74,10.51-10.68,10.23c-4.07-0.19-7.78-2.27-11.25-4.41c-15.98-9.86-30.96-22.24-42.63-37.02
	c-3.42-4.33-6.57-8.89-9.4-13.64c-2.72-4.58-5.15-9.34-7.24-14.26c-2.03-4.79-3.74-9.72-5.09-14.76
	c-1.34-4.97-2.33-10.03-2.98-15.14c-0.64-5.1-0.94-10.25-0.89-15.4c0.05-5.2,0.45-10.4,1.17-15.55c0.74-5.23,1.81-10.41,3.19-15.5
	c16.84-62.24,84.43-114.09,137.46-120.7c45.79-5.71,57.94,23.81,30.24,45.4c-44.06,34.32-99.92,68.63-105.6,123.77
	C171.46,413.61,182.55,448.75,195.98,472.42z M497.44,386.39c-16.3,33.65-34.22,56.22-46.68,69.46
	c-37.14,41.34-95.23,68.4-148.89,46.18c-30.83-12.77-54.94-41.45-59.24-74.96c-8.02-62.55,64.69-98.74,102.98-134.19
	c23.45-21.71,49.16-55.1,37.18-89.06c-11.47-32.55-49.72-46.71-81.15-49.98c-30.99-3.23-62.49,3.17-90.6,16.32
	c-22.07,10.32-40.62,25.97-58.01,42.79c-5.75,5.57-11.24,11.49-17.21,16.82c-5.14,4.59-11.31,8.79-18.29,9.74
	c-10.41,1.41-20.32-6.18-18.99-17.18c2.16-17.8,14.79-33.29,25.89-46.57c6.86-8.19,14.25-15.96,22.1-23.2
	c17.71-16.34,38.08-29.87,59.94-39.98C259.6,88,321.47,83.13,377.64,99.73c44.11,13.04,87.79,43.7,95.59,92.01
	c1.65,10.25,1.63,20.72,0.17,31c-5.19,36.67-27.24,69.44-52.24,95.78c-26.59,28.02-60.44,46.35-88.52,72.44
	c-16.43,15.27-23.13,34.01-3.29,49.87c27.1,13.81,49.64,6.64,74.27-8.31c14.52-8.82,26.96-20.57,37.76-33.61
	c5.48-6.61,10.56-13.55,15.41-20.63c4.13-6.02,7.94-12.94,13.43-17.91c3.38-3.55,7.53-6.23,12.55-6.68
	c7.35-0.66,14.61,3.23,17.51,10.15C503.23,370.87,500.61,379.84,497.44,386.39z"/>
</svg>
