<?xml version="1.0" encoding="utf-8"?>
<!-- Generator: Adobe Illustrator 25.3.1, SVG Export Plug-In . SVG Version: 6.00 Build 0)  -->
<svg version="1.1" id="Layer_1" xmlns="http://www.w3.org/2000/svg" xmlns:xlink="http://www.w3.org/1999/xlink" x="0px" y="0px"
	 viewBox="0 0 600 600" style="enable-background:new 0 0 600 600;" xml:space="preserve">
<style type="text/css">
	.st0{fill-rule:evenodd;clip-rule:evenodd;fill:#6706CE;}
	.st1{fill-rule:evenodd;clip-rule:evenodd;fill:#FFFFFF;}
</style>
<g>
	<circle class="st0" cx="300" cy="300" r="300"/>
</g>
<g>
	<path class="st1" d="M279.34,267.67c27.7-21.58,15.55-51.11-30.24-45.4c-53.03,6.6-120.62,58.45-137.46,120.7
		c-1.38,5.09-2.45,10.27-3.19,15.5c-0.73,5.15-1.12,10.35-1.17,15.55c-0.05,5.15,0.25,10.3,0.89,15.4
		c0.64,5.11,1.64,10.17,2.98,15.14c1.36,5.03,3.06,9.97,5.09,14.76c2.09,4.92,4.51,9.68,7.24,14.26c2.83,4.76,5.98,9.31,9.4,13.64
		c11.67,14.78,26.65,27.16,42.63,37.02c3.46,2.14,7.18,4.21,11.25,4.41c5.94,0.28,10.44-4.44,10.68-10.23
		c0.09-2.18-0.46-4.24-1.46-6c-13.42-23.67-24.52-58.81-22.24-80.99C179.43,336.29,235.28,301.98,279.34,267.67z"/>
	<path class="st1" d="M500.28,363.84c-2.9-6.91-10.16-10.81-17.51-10.15c-5.02,0.45-9.17,3.13-12.55,6.68
		c-5.49,4.97-9.31,11.89-13.43,17.91c-4.86,7.08-9.94,14.02-15.41,20.63c-10.8,13.04-23.24,24.79-37.76,33.61
		c-24.63,14.95-47.17,22.12-74.27,8.31c-19.83-15.86-13.13-34.6,3.29-49.87c28.08-26.1,61.93-44.42,88.52-72.44
		c25-26.34,47.05-59.11,52.24-95.78c1.46-10.27,1.48-20.74-0.17-31c-7.8-48.31-51.48-78.97-95.59-92.01
		C321.47,83.13,259.6,88,206.48,112.56c-21.86,10.11-42.23,23.65-59.94,39.98c-7.85,7.24-15.24,15.01-22.1,23.2
		c-11.1,13.27-23.73,28.77-25.89,46.57c-1.33,10.99,8.58,18.59,18.99,17.18c6.98-0.94,13.16-5.15,18.3-9.74
		c5.97-5.33,11.45-11.25,17.21-16.82c17.38-16.82,35.94-32.47,58.01-42.79c28.11-13.15,59.61-19.55,90.6-16.32
		c31.43,3.27,69.67,17.44,81.15,49.98c11.97,33.97-13.73,67.36-37.18,89.06c-38.29,35.44-110.99,71.63-102.98,134.19
		c4.29,33.51,28.4,62.19,59.24,74.96c53.66,22.23,111.74-4.84,148.89-46.18c12.46-13.24,30.38-35.82,46.68-69.46
		C500.61,379.84,503.23,370.87,500.28,363.84z"/>
</g>
</svg>
